<?xml version="1.0" encoding="UTF-8"?>
<svg width="200" height="200" viewBox="0 0 200 200" xmlns="http://www.w3.org/2000/svg">
  <!-- Голова -->
  <circle cx="100" cy="100" r="80" fill="#FFE4B5" stroke="#D2691E" stroke-width="3"/>
  
  <!-- Глаза -->
  <circle cx="80" cy="85" r="8" fill="#000"/>
  <circle cx="120" cy="85" r="8" fill="#000"/>
  
  <!-- Зрачки -->
  <circle cx="82" cy="87" r="3" fill="#FFF"/>
  <circle cx="122" cy="87" r="3" fill="#FFF"/>
  
  <!-- Нос -->
  <ellipse cx="100" cy="100" rx="4" ry="6" fill="#D2691E"/>
  
  <!-- Рот -->
  <path d="M 85 115 Q 100 130 115 115" stroke="#D2691E" stroke-width="3" fill="none"/>
  
  <!-- Щеки -->
  <circle cx="70" cy="110" r="12" fill="#FFB6C1" opacity="0.6"/>
  <circle cx="130" cy="110" r="12" fill="#FFB6C1" opacity="0.6"/>
  
  <!-- Уши -->
  <ellipse cx="60" cy="80" rx="8" ry="15" fill="#FFE4B5"/>
  <ellipse cx="140" cy="80" rx="8" ry="15" fill="#FFE4B5"/>
  
  <!-- Внутренняя часть ушей -->
  <ellipse cx="60" cy="80" rx="4" ry="8" fill="#D2691E"/>
  <ellipse cx="140" cy="80" rx="4" ry="8" fill="#D2691E"/>
  
  <!-- Волосы -->
  <path d="M 40 60 Q 60 30 80 50 Q 100 20 120 50 Q 140 30 160 60" stroke="#8B4513" stroke-width="8" fill="none" stroke-linecap="round"/>
</svg>




